<svg preserveAspectRatio="none" overflow="visible" style="display: block;" width="20" height="20" viewBox="0 0 20 20" fill="none" xmlns="http://www.w3.org/2000/svg">
<g id="sparkles" clip-path="url(#clip0_0_8)">
<path id="Vector" d="M16.6652 1.66913V5.00133M18.3315 3.33523H14.9989M9.18101 2.3476C9.21671 2.1565 9.31813 1.9839 9.4677 1.85969C9.61727 1.73549 9.80557 1.6675 10 1.6675C10.1944 1.6675 10.3827 1.73549 10.5323 1.85969C10.6819 1.9839 10.7833 2.1565 10.819 2.3476L11.6946 6.97769C11.7568 7.30687 11.9168 7.60966 12.1537 7.84654C12.3906 8.08342 12.6935 8.24339 13.0227 8.30557L17.6533 9.18111C17.8444 9.21681 18.0171 9.31821 18.1413 9.46776C18.2655 9.61731 18.3335 9.8056 18.3335 10C18.3335 10.1944 18.2655 10.3827 18.1413 10.5322C18.0171 10.6818 17.8444 10.7832 17.6533 10.8189L13.0227 11.6944C12.6935 11.7566 12.3906 11.9166 12.1537 12.1535C11.9168 12.3903 11.7568 12.6931 11.6946 13.0223L10.819 17.6524C10.7833 17.8435 10.6819 18.0161 10.5323 18.1403C10.3827 18.2645 10.1944 18.3325 10 18.3325C9.80557 18.3325 9.61727 18.2645 9.4677 18.1403C9.31813 18.0161 9.21671 17.8435 9.18101 17.6524L8.30537 13.0223C8.24318 12.6931 8.08319 12.3903 7.84628 12.1535C7.60937 11.9166 7.30655 11.7566 6.97733 11.6944L2.34668 10.8189C2.15556 10.7832 1.98294 10.6818 1.85872 10.5322C1.7345 10.3827 1.6665 10.1944 1.6665 10C1.6665 9.8056 1.7345 9.61731 1.85872 9.46776C1.98294 9.31821 2.15556 9.21681 2.34668 9.18111L6.97733 8.30557C7.30655 8.24339 7.60937 8.08342 7.84628 7.84654C8.08319 7.60966 8.24318 7.30687 8.30537 6.97769L9.18101 2.3476ZM5.00114 16.664C5.00114 17.5842 4.25511 18.3301 3.33484 18.3301C2.41456 18.3301 1.66853 17.5842 1.66853 16.664C1.66853 15.7439 2.41456 14.9979 3.33484 14.9979C4.25511 14.9979 5.00114 15.7439 5.00114 16.664Z" stroke="#E01485" stroke-width="2" stroke-linecap="round"/>
</g>
<defs>
<clipPath id="clip0_0_8">
<rect width="20" height="20" fill="white"/>
</clipPath>
</defs>
</svg>
